User Type,Username,Date,Text
,valvikjc,2006-10-26T16:58Z,"It realy anoys me that there isn't a cue file with VA stuff... Don't misunderstand me, i love the uploads. "
,nautilu5,2007-04-11T23:37Z,"cd1

PERFORMER ""Hernan Catanneo""
TITLE ""Sequential""
FILE ""va-sequential_mixed_by_hernan_cattaneo_cd1.mp3"" WAVE
  TRACK 01 AUDIO
    TITLE ""Arguipelago""
    PERFORMER ""Gui Boratto""
    INDEX 01 00:00:00
  TRACK 02 AUDIO
    TITLE ""F**k Them All (Oliviero & MOS For The Ladies Remix)""
    PERFORMER ""Petersky""
    INDEX 01 05:21:00
  TRACK 03 AUDIO
    TITLE ""Thought Line""
    PERFORMER ""Trafik""
    INDEX 00 11:11:25
    INDEX 01 11:11:36
  TRACK 04 AUDIO
    TITLE ""Feel It (Tommyboy & Mannel's Renaissance Sequential Remix)""
    PERFORMER ""Tommyboy & Mannel""
    INDEX 00 17:01:62
    INDEX 01 17:01:72
  TRACK 05 AUDIO
    TITLE ""Baboo""
    PERFORMER ""Mikael Delta""
    INDEX 00 21:36:08
    INDEX 01 21:36:18
  TRACK 06 AUDIO
    TITLE ""Florence""
    PERFORMER ""Dousk""
    INDEX 00 27:57:05
    INDEX 01 27:57:15
  TRACK 07 AUDIO
    TITLE ""Je T'Aime (Love Dub For Hernan)""
    PERFORMER ""Rocco Mundo & Onno""
    INDEX 00 34:02:58
    INDEX 01 34:02:68
  TRACK 08 AUDIO
    TITLE ""1983""
    PERFORMER ""Paolo Mojo""
    INDEX 00 39:24:51
    INDEX 01 39:24:61
  TRACK 09 AUDIO
    TITLE ""Dize Moi""
    PERFORMER ""Chris Llopis""
    INDEX 00 46:27:40
    INDEX 01 46:27:50
  TRACK 10 AUDIO
    TITLE ""With My Friends""
    PERFORMER ""Randall Jones Pres. DJs Set You Free""
    INDEX 00 50:31:26
    INDEX 01 50:31:36
  TRACK 11 AUDIO
    TITLE ""Wonka""
    PERFORMER ""Way Out west""
    INDEX 00 57:07:40
    INDEX 01 57:07:50
  TRACK 12 AUDIO
    TITLE ""Passing Lights""
    PERFORMER ""16 Bit Lolita's Feat. Jennifer Horne""
    INDEX 00 60:33:19
    INDEX 01 60:33:29
  TRACK 13 AUDIO
    TITLE ""For The Time Being (Hernan Catanneo & John Tonks Exclusive Sequential Remix)""
    PERFORMER ""Phonique Feat. Erlend 0ye""
    INDEX 00 68:48:37
    INDEX 01 68:48:47


cd 2

PERFORMER ""Hernan Cattaneo""
TITLE ""Sequential""
FILE ""va-sequential_mixed_by_hernan_cattaneo_cd2.mp3"" WAVE
  TRACK 01 AUDIO
    TITLE ""Beastman""
    PERFORMER ""Bushwacka!""
    INDEX 01 00:00:00
  TRACK 02 AUDIO
    TITLE ""Fashionista""
    PERFORMER ""Trisco""
    INDEX 01 07:00:74
  TRACK 03 AUDIO
    TITLE ""Two Full Moons And A Trout (Luke Chable Remix)""
    PERFORMER ""Union Jack""
    INDEX 01 13:23:38
  TRACK 04 AUDIO
    TITLE ""Cram It Up Your Cram Hole""
    PERFORMER ""Derek Howell""
    INDEX 01 19:53:37
  TRACK 05 AUDIO
    TITLE ""Destiny""
    PERFORMER ""16 Bit Lolita's""
    INDEX 01 27:16:00
  TRACK 06 AUDIO
    TITLE ""Fatal Attraction""
    PERFORMER ""Marco Bailey""
    INDEX 01 32:16:00
  TRACK 07 AUDIO
    TITLE ""Obsessions (Kered vs. The Naboombu People Remix)""
    PERFORMER ""Mehta & Riedel""
    INDEX 01 37:08:37
  TRACK 08 AUDIO
    TITLE ""Lisopain (The Pushers Sublingual Dub)""
    PERFORMER ""Dan Welton""
    INDEX 01 43:53:19
  TRACK 09 AUDIO
    TITLE ""Other Dye (Perry O' Neil Remix)""
    PERFORMER ""Brisker & Magitman""
    INDEX 01 49:23:37
  TRACK 10 AUDIO
    TITLE ""I Feel Real (Hernan Cattaneo Edit)""
    PERFORMER ""Nick Muir""
    INDEX 01 56:08:37
  TRACK 11 AUDIO
    TITLE ""Breather""
    PERFORMER ""Eddie F""
    INDEX 01 63:08:37
  TRACK 12 AUDIO
    TITLE ""Sirocco""
    PERFORMER ""Hernan Cattaneo & John Tonks""
    INDEX 01 68:08:27"
,one234pirate,2009-09-06T15:02Z,"Dunno about this torrent, but this mix is A M A Z I N G ! It must be the mix I've listened to the most, and it never gets old. "
